HIERARCHY
ROOT Hips
{
	OFFSET -0.001795 -0.223333 0.028219
	CHANNELS 6 Xposition Yposition Zposition Zrotation Yrotation Xrotation 
	JOINT LeftUpLeg
	{
		OFFSET 0.069520 -0.091406 -0.006815
		CHANNELS 3 Zrotation Yrotation Xrotation
		JOINT LeftLeg
		{
			OFFSET 0.034277 -0.375199 -0.004496
			CHANNELS 3 Zrotation Yrotation Xrotation
			JOINT LeftFoot
			{
				OFFSET -0.013596 -0.397961 -0.043693
				CHANNELS 3 Zrotation Yrotation Xrotation
				JOINT LeftToe
				{
					OFFSET 0.026358 -0.055791 0.119288
					CHANNELS 3 Zrotation Yrotation Xrotation
					End Site
					{
						OFFSET 0.000000 0.000000 0.000000
					}
				}
			}
		}
	}
	JOINT RightUpLeg
	{
		OFFSET -0.067670 -0.090522 -0.004320
		CHANNELS 3 Zrotation Yrotation Xrotation
		JOINT RightLeg
		{
			OFFSET -0.038290 -0.382569 -0.008850
			CHANNELS 3 Zrotation Yrotation Xrotation
			JOINT RightFoot
			{
				OFFSET 0.015774 -0.398415 -0.042312
				CHANNELS 3 Zrotation Yrotation Xrotation
				JOINT RightToe
				{
					OFFSET -0.025372 -0.048144 0.123348
					CHANNELS 3 Zrotation Yrotation Xrotation
					End Site
					{
						OFFSET 0.000000 0.000000 0.000000
					}
				}
			}
		}
	}
	JOINT Spine
	{
		OFFSET -0.002533 0.108963 -0.026696
		CHANNELS 3 Zrotation Yrotation Xrotation
		JOINT Spine1
		{
			OFFSET 0.005487 0.135180 0.001092
			CHANNELS 3 Zrotation Yrotation Xrotation
			JOINT Spine2
			{
				OFFSET 0.001457 0.052922 0.025425
				CHANNELS 3 Zrotation Yrotation Xrotation
				JOINT Neck
				{
					OFFSET -0.002778 0.213870 -0.042857
					CHANNELS 3 Zrotation Yrotation Xrotation
					JOINT Head
					{
						OFFSET 0.005152 0.064970 0.051349
						CHANNELS 3 Zrotation Yrotation Xrotation
						End Site
						{
							OFFSET 0.000000 0.000000 0.000000
						}
					}
				}
				JOINT LeftShoulder
				{
					OFFSET 0.078845 0.121749 -0.034090
					CHANNELS 3 Zrotation Yrotation Xrotation
					JOINT LeftArm
					{
						OFFSET 0.090977 0.030469 -0.008868
						CHANNELS 3 Zrotation Yrotation Xrotation
						JOINT LeftForeArm
						{
							OFFSET 0.259612 -0.012772 -0.027456
							CHANNELS 3 Zrotation Yrotation Xrotation
							JOINT LeftHand
							{
								OFFSET 0.249234 0.008986 -0.001171
								CHANNELS 3 Zrotation Yrotation Xrotation
								End Site
								{
									OFFSET 0.000000 0.000000 0.000000
								}
							}
						}
					}
				}
				JOINT RightShoulder
				{
					OFFSET -0.081759 0.118833 -0.038615
					CHANNELS 3 Zrotation Yrotation Xrotation
					JOINT RightArm
					{
						OFFSET -0.096012 0.032551 -0.009143
						CHANNELS 3 Zrotation Yrotation Xrotation
						JOINT RightForeArm
						{
							OFFSET -0.253742 -0.013329 -0.021401
							CHANNELS 3 Zrotation Yrotation Xrotation
							JOINT RightHand
							{
								OFFSET -0.255298 0.007772 -0.005559
								CHANNELS 3 Zrotation Yrotation Xrotation
								End Site
								{
									OFFSET 0.000000 0.000000 0.000000
								}
							}
						}
					}
				}
			}
		}
	}
}
MOTION
Frames: 8
Frame Time: 0.050000
0.312268 0.905447 0.742791 2.255617 -1.396051 -12.358117 0.578036 0.734362 8.102131 -5.344863 0.842022 13.826773 4.638039 8.316511 -5.615164 0.000000 0.000000 0.000000 -15.557351 -0.225391 -5.914472 5.268275 -0.456998 29.567397 8.287561 -0.897023 35.221214 0.000000 0.000000 0.000000 5.220097 -1.791822 23.735549 -9.638682 3.185892 -23.373150 -2.223373 7.617249 26.128826 10.590882 -3.062266 -29.148194 0.000000 0.000000 0.000000 -12.196546 -20.505500 7.451863 -47.007729 -28.544858 3.453961 133.118825 -77.874444 -119.496041 0.000000 0.000000 0.000000 27.589133 6.601335 4.966141 50.612376 13.008060 -2.624151 1.480636 33.338581 2.383321 0.000000 0.000000 0.000000 
0.311974 0.907258 0.742105 2.280602 -1.694152 -12.524044 0.388642 0.850847 9.211322 -5.019866 0.749515 12.092700 4.597307 8.420523 -5.075754 0.000000 0.000000 0.000000 -15.562830 -0.214431 -5.903711 5.291102 -0.432277 29.548928 8.541698 -0.871271 35.878205 0.000000 0.000000 0.000000 5.382918 -1.804121 23.762365 -9.818361 3.200483 -23.856046 -2.537291 8.005969 25.896155 10.956525 -3.140836 -29.604855 0.000000 0.000000 0.000000 -11.712796 -20.651627 7.433453 -47.887571 -28.839562 3.683384 132.100410 -77.850796 -118.428458 0.000000 0.000000 0.000000 27.482547 5.833450 4.553429 51.212814 11.737496 -3.167593 2.646881 32.307761 2.630788 0.000000 0.000000 0.000000 
0.311816 0.909455 0.741491 2.153037 -1.858446 -12.416388 0.238525 0.926743 9.898432 -4.488845 0.617730 10.560806 4.527974 8.465591 -4.421520 0.000000 0.000000 0.000000 -15.548853 -0.204925 -5.995217 5.567000 -0.525753 29.287021 8.725531 -0.930888 36.613938 0.000000 0.000000 0.000000 5.507919 -1.800209 23.495421 -9.840731 3.189098 -24.036827 -2.633979 8.284012 25.668861 11.008615 -3.138611 -29.481334 0.000000 0.000000 0.000000 -11.100452 -20.634292 7.347183 -48.468988 -29.382127 3.977254 130.820266 -77.860881 -117.109436 0.000000 0.000000 0.000000 27.438811 5.084679 4.144557 51.616498 10.763033 -3.579201 3.162123 31.690597 2.726940 0.000000 0.000000 0.000000 
0.311648 0.911188 0.740891 2.006217 -1.795074 -11.952446 0.119485 0.953713 10.123009 -3.972379 0.498273 9.138300 4.427359 8.360782 -3.952600 0.000000 0.000000 0.000000 -15.477702 -0.194460 -6.122729 5.803657 -0.635119 28.598090 8.691032 -1.028066 36.831885 0.000000 0.000000 0.000000 5.672303 -1.788096 22.832400 -9.938978 3.176239 -24.493592 -2.836418 8.262938 25.523563 11.288212 -3.148009 -30.208680 0.000000 0.000000 0.000000 -10.743424 -20.773401 7.381198 -48.736088 -29.112166 3.898080 130.326103 -77.361966 -116.097198 0.000000 0.000000 0.000000 27.382502 4.502016 3.792870 52.190986 9.355553 -4.177506 4.491270 30.915427 3.001540 0.000000 0.000000 0.000000 
0.311466 0.913237 0.740231 1.957121 -2.104389 -11.676057 -0.053017 1.005877 10.472559 -3.590937 0.425856 7.874533 4.399734 8.544543 -3.159478 0.000000 0.000000 0.000000 -15.483992 -0.170739 -6.195957 5.993334 -0.682226 27.933572 8.851500 -0.991146 37.143516 0.000000 0.000000 0.000000 5.581867 -1.738788 22.534645 -10.000872 3.163368 -24.829990 -2.806881 8.372585 25.524286 11.343455 -3.074053 -30.837478 0.000000 0.000000 0.000000 -10.622180 -20.570454 7.308353 -48.396129 -29.089190 3.832137 130.233824 -76.778287 -115.426075 0.000000 0.000000 0.000000 27.557571 4.158945 3.562572 52.325175 8.549291 -4.526159 5.669640 30.778985 3.293665 0.000000 0.000000 0.000000 
0.311293 0.914834 0.739563 1.936969 -2.482381 -11.233720 -0.140760 1.028094 10.550648 -3.445020 0.403900 6.784593 4.416380 8.787827 -2.480458 0.000000 0.000000 0.000000 -15.419814 -0.140126 -6.426342 6.033760 -0.670985 27.217382 8.970225 -0.922840 37.197224 0.000000 0.000000 0.000000 5.574190 -1.679581 21.941966 -10.115081 3.163052 -25.089073 -3.088926 8.414552 25.436545 11.469255 -3.036467 -31.520611 0.000000 0.000000 0.000000 -10.542571 -20.404839 7.270302 -47.999186 -28.614164 3.586556 130.651297 -76.386632 -115.469998 0.000000 0.000000 0.000000 27.337276 3.820955 3.276334 52.930887 7.838047 -4.817342 6.987355 30.154145 3.551487 0.000000 0.000000 0.000000 
0.311078 0.916214 0.738890 1.738809 -2.768321 -11.087011 0.030044 1.051098 10.857683 -3.357503 0.392151 5.888669 4.405450 8.914170 -1.949468 0.000000 0.000000 0.000000 -15.219094 -0.116322 -6.554625 6.149380 -0.692006 26.932748 9.112978 -0.917050 37.552438 0.000000 0.000000 0.000000 5.587362 -1.655771 21.710233 -10.090788 3.135399 -25.319452 -3.116283 8.653853 25.456176 11.833065 -3.217048 -31.524462 0.000000 0.000000 0.000000 -9.956844 -20.174112 7.127710 -48.241668 -28.360737 3.476897 131.393945 -76.002083 -115.992212 0.000000 0.000000 0.000000 27.181498 3.290787 2.962004 53.577279 7.197869 -5.119076 7.600353 29.818393 3.681355 0.000000 0.000000 0.000000 
0.310911 0.918030 0.738181 1.557231 -3.149709 -10.768525 -0.120830 1.080359 10.963038 -2.784114 0.301444 5.006757 4.467537 9.238157 -1.245085 0.000000 0.000000 0.000000 -14.753964 -0.071252 -6.711595 5.830214 -0.560799 26.347835 9.223010 -0.898053 37.718555 0.000000 0.000000 0.000000 5.589644 -1.597405 21.060897 -10.037503 3.109555 -25.301661 -3.226845 8.987532 25.425779 12.448916 -3.510215 -31.587051 0.000000 0.000000 0.000000 -9.403947 -20.175433 7.082736 -47.723658 -27.615102 3.093232 131.513742 -75.169197 -115.485485 0.000000 0.000000 0.000000 27.011668 2.882570 2.739721 54.149416 6.747992 -5.334362 8.369363 29.156521 3.790564 0.000000 0.000000 0.000000 
